<svg width="16" height="16" viewBox="0 0 16 16" fill="none" xmlns="http://www.w3.org/2000/svg">
<path fill-rule="evenodd" clip-rule="evenodd" d="M11.9407 3.49619C12.2182 3.73814 12.2471 4.15927 12.0051 4.4368L7.75512 9.3118C7.51317 9.58933 7.09205 9.61817 6.81451 9.37622C6.53698 9.13427 6.50814 8.71315 6.75009 8.43562L11.0001 3.56062C11.242 3.28309 11.6632 3.25424 11.9407 3.49619ZM14.9416 3.49699C15.2187 3.73944 15.2468 4.16062 15.0043 4.43771L8.00432 12.4377C7.88282 12.5766 7.7092 12.6589 7.52479 12.665C7.34038 12.6711 7.16167 12.6006 7.0312 12.4701L4.0312 9.47011C3.77085 9.20976 3.77085 8.78765 4.0312 8.5273C4.29155 8.26695 4.71366 8.26695 4.97401 8.5273L7.47013 11.0234L14.0009 3.5597C14.2433 3.28261 14.6645 3.25454 14.9416 3.49699ZM1.0312 8.5273C1.29155 8.26695 1.71366 8.26695 1.97401 8.5273L4.97401 11.5273C5.23436 11.7877 5.23436 12.2098 4.97401 12.4701C4.71366 12.7305 4.29155 12.7305 4.0312 12.4701L1.0312 9.47011C0.77085 9.20976 0.77085 8.78765 1.0312 8.5273Z" fill="#198754"/>
</svg>
